<svg width="31" height="16" viewBox="0 0 31 16" fill="none" xmlns="http://www.w3.org/2000/svg">
<path d="M10.3 3.36L10.64 4.08L2.46 7.9L10.64 11.72L10.3 12.44L0.56 7.9L10.3 3.36ZM18.4322 0.559999L12.9922 15.28H12.3322L17.7722 0.559999H18.4322ZM20.4359 3.36L30.1759 7.9L20.4359 12.44L20.0959 11.72L28.2759 7.9L20.0959 4.08L20.4359 3.36Z" fill="#02FF95"/>
<path d="M10.3 3.36L10.7521 3.1465L10.5397 2.69663L10.0888 2.90681L10.3 3.36ZM10.64 4.08L10.8516 4.53304L11.3065 4.32056L11.0921 3.8665L10.64 4.08ZM2.46 7.9L2.24844 7.44696L1.27832 7.9L2.24844 8.35303L2.46 7.9ZM10.64 11.72L11.0921 11.9335L11.3065 11.4794L10.8516 11.267L10.64 11.72ZM10.3 12.44L10.0888 12.8932L10.5397 13.1034L10.7521 12.6535L10.3 12.44ZM0.56 7.9L0.348761 7.44681L-0.623494 7.9L0.348761 8.35319L0.56 7.9ZM9.84788 3.5735L10.1879 4.2935L11.0921 3.8665L10.7521 3.1465L9.84788 3.5735ZM10.4284 3.62696L2.24844 7.44696L2.67156 8.35303L10.8516 4.53304L10.4284 3.62696ZM2.24844 8.35303L10.4284 12.173L10.8516 11.267L2.67156 7.44696L2.24844 8.35303ZM10.1879 11.5065L9.84788 12.2265L10.7521 12.6535L11.0921 11.9335L10.1879 11.5065ZM10.5112 11.9868L0.771239 7.44681L0.348761 8.35319L10.0888 12.8932L10.5112 11.9868ZM0.771239 8.35319L10.5112 3.81319L10.0888 2.90681L0.348761 7.44681L0.771239 8.35319ZM18.4322 0.559999L18.9012 0.733324L19.15 0.0599985H18.4322V0.559999ZM12.9922 15.28V15.78H13.3405L13.4612 15.4533L12.9922 15.28ZM12.3322 15.28L11.8632 15.1067L11.6144 15.78H12.3322V15.28ZM17.7722 0.559999V0.0599985H17.4239L17.3032 0.386673L17.7722 0.559999ZM17.9632 0.386674L12.5232 15.1067L13.4612 15.4533L18.9012 0.733324L17.9632 0.386674ZM12.9922 14.78H12.3322V15.78H12.9922V14.78ZM12.8012 15.4533L18.2412 0.733324L17.3032 0.386673L11.8632 15.1067L12.8012 15.4533ZM17.7722 1.06H18.4322V0.0599985H17.7722V1.06ZM20.4359 3.36L20.6472 2.90681L20.1963 2.69663L19.9838 3.1465L20.4359 3.36ZM30.1759 7.9L30.3872 8.35319L31.3594 7.9L30.3872 7.44681L30.1759 7.9ZM20.4359 12.44L19.9838 12.6535L20.1963 13.1034L20.6472 12.8932L20.4359 12.44ZM20.0959 11.72L19.8844 11.267L19.4294 11.4794L19.6438 11.9335L20.0959 11.72ZM28.2759 7.9L28.4875 8.35303L29.4576 7.9L28.4875 7.44696L28.2759 7.9ZM20.0959 4.08L19.6438 3.8665L19.4294 4.32056L19.8844 4.53304L20.0959 4.08ZM20.2247 3.81319L29.9647 8.35319L30.3872 7.44681L20.6472 2.90681L20.2247 3.81319ZM29.9647 7.44681L20.2247 11.9868L20.6472 12.8932L30.3872 8.35319L29.9647 7.44681ZM20.8881 12.2265L20.5481 11.5065L19.6438 11.9335L19.9838 12.6535L20.8881 12.2265ZM20.3075 12.173L28.4875 8.35303L28.0644 7.44696L19.8844 11.267L20.3075 12.173ZM28.4875 7.44696L20.3075 3.62696L19.8844 4.53304L28.0644 8.35303L28.4875 7.44696ZM20.5481 4.2935L20.8881 3.5735L19.9838 3.1465L19.6438 3.8665L20.5481 4.2935Z" fill="#02FF95"/>
</svg>
