<svg width="24" height="24" viewBox="0 0 24 24" fill="none" xmlns="http://www.w3.org/2000/svg">
<path d="M21.2343 5.28751L12.2343 2.2875C12.0816 2.24051 11.9182 2.24051 11.7655 2.2875L2.7749 5.28751H2.75615L2.6624 5.33438H2.65302L2.55927 5.39063C2.55927 5.4 2.5499 5.4 2.54052 5.40938L2.46552 5.47501L2.3999 5.55C2.3999 5.55938 2.39052 5.55938 2.39052 5.56876L2.33427 5.65313C2.33427 5.6625 2.33427 5.6625 2.3249 5.67188L2.2874 5.75626L2.25927 5.85938V5.8875C2.25003 5.92424 2.24686 5.96224 2.2499 6V13.5C2.2499 13.6989 2.32891 13.8897 2.46957 14.0303C2.61022 14.171 2.80098 14.25 2.9999 14.25C3.19881 14.25 3.38958 14.171 3.53023 14.0303C3.67088 13.8897 3.7499 13.6989 3.7499 13.5V7.04063L6.8999 8.09063C6.30811 9.03788 5.99612 10.1331 5.9999 11.25C6.00024 12.2658 6.25847 13.2649 6.75039 14.1536C7.24231 15.0423 7.95181 15.7916 8.8124 16.3313C7.02402 17.0078 5.49726 18.2358 4.45302 19.8375C4.34659 20.0058 4.31052 20.2092 4.35261 20.4039C4.3947 20.5985 4.51156 20.7688 4.67802 20.8781C4.75971 20.9323 4.85133 20.9696 4.94757 20.9881C5.04381 21.0066 5.14276 21.0057 5.23868 20.9857C5.3346 20.9656 5.42558 20.9267 5.50636 20.8713C5.58714 20.8158 5.65611 20.7448 5.70927 20.6625C6.39002 19.6139 7.32209 18.7521 8.42073 18.1555C9.51936 17.5589 10.7497 17.2464 11.9999 17.2464C13.2501 17.2464 14.4804 17.5589 15.5791 18.1555C16.6777 18.7521 17.6098 19.6139 18.2905 20.6625C18.359 20.7665 18.4523 20.8518 18.5619 20.9107C18.6716 20.9696 18.7942 21.0003 18.9186 21C19.0623 21.0015 19.203 20.959 19.3218 20.8781C19.4882 20.7688 19.6051 20.5985 19.6472 20.4039C19.6893 20.2092 19.6532 20.0058 19.5468 19.8375C18.5025 18.2358 16.9758 17.0078 15.1874 16.3313C16.048 15.7916 16.7575 15.0423 17.2494 14.1536C17.7413 13.2649 17.9996 12.2658 17.9999 11.25C18.0037 10.1331 17.6917 9.03788 17.0999 8.09063L21.2343 6.7125C21.3843 6.66319 21.515 6.56775 21.6076 6.43981C21.7002 6.31187 21.7501 6.15795 21.7501 6C21.7501 5.84206 21.7002 5.68814 21.6076 5.5602C21.515 5.43226 21.3843 5.33682 21.2343 5.28751ZM16.4999 11.25C16.4999 12.4435 16.0258 13.5881 15.1819 14.432C14.338 15.2759 13.1934 15.75 11.9999 15.75C10.8064 15.75 9.66183 15.2759 8.81792 14.432C7.974 13.5881 7.4999 12.4435 7.4999 11.25C7.50171 10.2898 7.80685 9.35463 8.37177 8.57813L11.7655 9.7125C11.9178 9.76259 12.082 9.76259 12.2343 9.7125L15.628 8.57813C16.1929 9.35463 16.4981 10.2898 16.4999 11.25ZM15.628 7.00313H15.6186L11.9999 8.2125L8.38115 7.00313H8.37177L5.37177 6L11.9999 3.7875L18.628 6L15.628 7.00313Z" fill="#02FF95"/>
</svg>
