<svg width="34" height="34" viewBox="0 0 34 34" fill="none" xmlns="http://www.w3.org/2000/svg">
<path fill-rule="evenodd" clip-rule="evenodd" d="M10.5753 1.51016C12.237 1.43366 12.7668 1.41666 16.9998 1.41666C21.2328 1.41666 21.7627 1.43507 23.423 1.51016C25.0833 1.58524 26.2167 1.85016 27.2083 2.23407C28.2468 2.62649 29.1888 3.23991 29.968 4.03324C30.7613 4.81099 31.3733 5.75166 31.7643 6.79149C32.1497 7.78316 32.4132 8.91649 32.4897 10.574C32.5662 12.2386 32.5832 12.7684 32.5832 17C32.5832 21.233 32.5648 21.7628 32.4897 23.4246C32.4146 25.0821 32.1497 26.2154 31.7643 27.2071C31.3733 28.247 30.7603 29.1893 29.968 29.9682C29.1888 30.7615 28.2468 31.3735 27.2083 31.7645C26.2167 32.1498 25.0833 32.4133 23.4258 32.4898C21.7627 32.5663 21.2328 32.5833 16.9998 32.5833C12.7668 32.5833 12.237 32.5649 10.5753 32.4898C8.91776 32.4147 7.78442 32.1498 6.79275 31.7645C5.75281 31.3734 4.81058 30.7604 4.03167 29.9682C3.23888 29.1899 2.62537 28.2482 2.23392 27.2085C1.85 26.2168 1.5865 25.0835 1.51 23.426C1.4335 21.7614 1.4165 21.2316 1.4165 17C1.4165 12.767 1.43492 12.2372 1.51 10.5768C1.58509 8.91649 1.85 7.78316 2.23392 6.79149C2.62594 5.75177 3.23992 4.81002 4.03309 4.03182C4.81089 3.2392 5.75217 2.6257 6.79134 2.23407C7.783 1.85016 8.91634 1.58666 10.5738 1.51016H10.5753ZM23.2969 4.31516C21.6536 4.24007 21.1606 4.22449 16.9998 4.22449C12.8391 4.22449 12.3461 4.24007 10.7028 4.31516C9.18267 4.38457 8.35817 4.63816 7.80851 4.85207C7.08175 5.13541 6.56184 5.47116 6.01642 6.01657C5.4994 6.51956 5.10151 7.13189 4.85192 7.80866C4.638 8.35832 4.38442 9.18282 4.315 10.7029C4.23992 12.3462 4.22434 12.8392 4.22434 17C4.22434 21.1607 4.23992 21.6537 4.315 23.2971C4.38442 24.8172 4.638 25.6417 4.85192 26.1913C5.10125 26.8671 5.49934 27.4805 6.01642 27.9834C6.51934 28.5005 7.13275 28.8986 7.80851 29.1479C8.35817 29.3618 9.18267 29.6154 10.7028 29.6848C12.3461 29.7599 12.8377 29.7755 16.9998 29.7755C21.162 29.7755 21.6536 29.7599 23.2969 29.6848C24.817 29.6154 25.6415 29.3618 26.1912 29.1479C26.9179 28.8646 27.4378 28.5288 27.9833 27.9834C28.5003 27.4805 28.8984 26.8671 29.1478 26.1913C29.3617 25.6417 29.6153 24.8172 29.6847 23.2971C29.7598 21.6537 29.7753 21.1607 29.7753 17C29.7753 12.8392 29.7598 12.3462 29.6847 10.7029C29.6153 9.18282 29.3617 8.35832 29.1478 7.80866C28.8644 7.08191 28.5287 6.56199 27.9833 6.01657C27.4802 5.49959 26.8679 5.10171 26.1912 4.85207C25.6415 4.63816 24.817 4.38457 23.2969 4.31516ZM15.0094 21.8039C16.121 22.2666 17.3588 22.3291 18.5113 21.9806C19.6639 21.6321 20.6596 20.8943 21.3286 19.8932C21.9976 18.892 22.2983 17.6897 22.1792 16.4916C22.0602 15.2934 21.5289 14.1737 20.6761 13.3237C20.1324 12.7804 19.4751 12.3644 18.7513 12.1056C18.0276 11.8468 17.2554 11.7518 16.4905 11.8272C15.7256 11.9026 14.987 12.1467 14.3277 12.5419C13.6685 12.9371 13.1051 13.4735 12.678 14.1126C12.251 14.7517 11.9709 15.4775 11.8581 16.2378C11.7452 16.9981 11.8023 17.7739 12.0253 18.5095C12.2482 19.245 12.6315 19.922 13.1475 20.4917C13.6635 21.0613 14.2994 21.5095 15.0094 21.8039ZM11.336 11.3362C12.0798 10.5924 12.9628 10.0024 13.9346 9.59984C14.9064 9.1973 15.948 8.99012 16.9998 8.99012C18.0517 8.99012 19.0933 9.1973 20.0651 9.59984C21.0369 10.0024 21.9199 10.5924 22.6637 11.3362C23.4075 12.0799 23.9975 12.9629 24.4 13.9347C24.8025 14.9065 25.0097 15.9481 25.0097 17C25.0097 18.0519 24.8025 19.0934 24.4 20.0652C23.9975 21.037 23.4075 21.92 22.6637 22.6638C21.1615 24.166 19.1242 25.0099 16.9998 25.0099C14.8755 25.0099 12.8381 24.166 11.336 22.6638C9.83386 21.1617 8.98997 19.1243 8.98997 17C8.98997 14.8756 9.83386 12.8383 11.336 11.3362ZM26.7862 10.183C26.9705 10.0091 27.118 9.80004 27.2201 9.56812C27.3222 9.3362 27.3767 9.08616 27.3803 8.83281C27.384 8.57945 27.3369 8.32793 27.2416 8.09314C27.1464 7.85834 27.005 7.64505 26.8258 7.46588C26.6466 7.28671 26.4333 7.14531 26.1985 7.05006C25.9637 6.9548 25.7122 6.90762 25.4589 6.91132C25.2055 6.91501 24.9555 6.9695 24.7235 7.07156C24.4916 7.17362 24.2825 7.32118 24.1087 7.50549C23.7705 7.86395 23.5854 8.34008 23.5926 8.83281C23.5998 9.32554 23.7987 9.79607 24.1471 10.1445C24.4956 10.493 24.9661 10.6919 25.4589 10.6991C25.9516 10.7063 26.4277 10.5211 26.7862 10.183Z" fill="black"/>
</svg>
