<svg width="34" height="34" viewBox="0 0 34 34" fill="none" xmlns="http://www.w3.org/2000/svg">
<path fill-rule="evenodd" clip-rule="evenodd" d="M13.3579 12.7061H18.6194V15.3269C19.3773 13.8196 21.321 12.4653 24.2407 12.4653C29.838 12.4653 31.1668 15.4658 31.1668 20.9709V31.1667H25.5002V22.2247C25.5002 19.0896 24.7422 17.3216 22.8127 17.3216C20.1367 17.3216 19.0246 19.227 19.0246 22.2233V31.1667H13.3579V12.7061ZM3.641 30.9258H9.30766V12.4653H3.641V30.9258ZM10.1194 6.44584C10.1196 6.92082 10.0254 7.39109 9.8423 7.82934C9.65916 8.26759 9.39075 8.66507 9.05266 8.99868C8.36756 9.67956 7.44023 10.0607 6.47433 10.0583C5.51013 10.0577 4.58494 9.67754 3.89883 9.00009C3.56196 8.66535 3.29446 8.26743 3.11165 7.82912C2.92884 7.39082 2.83432 6.92074 2.8335 6.44584C2.8335 5.48676 3.216 4.56876 3.90025 3.89159C4.58575 3.21323 5.51134 2.83292 6.47575 2.83334C7.44191 2.83334 8.36841 3.21443 9.05266 3.89159C9.7355 4.56876 10.1194 5.48676 10.1194 6.44584Z" fill="black"/>
</svg>
