<svg width="57" height="91" viewBox="0 0 57 91" fill="none" xmlns="http://www.w3.org/2000/svg">
<path d="M19.28 31.53C22.59 31.53 25.15 31.86 26.96 32.53C28.77 33.2 30.32 33.9 31.6 34.65C32.24 35.02 32.76 35.3 33.16 35.49C33.56 35.68 33.95 35.77 34.32 35.77C34.85 35.77 35.24 35.48 35.48 34.89C35.72 34.3 35.92 33.42 36.08 32.25H37.92C37.87 33.32 37.8 34.57 37.72 36.01C37.64 37.45 37.59 39.36 37.56 41.73C37.53 44.1 37.52 47.24 37.52 51.13L36.52 49.78C36.31 46.9 35.64 48.45 34.52 45.78C33.4 43.11 31.03 37.93 29.08 36.17C27.13 34.41 24.75 33.53 21.92 33.53C19.47 33.53 17.44 34.21 15.84 35.57C14.24 36.93 13.44 38.86 13.44 41.37C13.44 43.4 13.95 45.14 14.96 46.61C15.97 48.08 17.51 49.56 19.56 51.05C21.61 52.54 24.21 54.38 27.36 56.57C29.87 58.22 32.11 59.88 34.08 61.53C36.05 63.18 37.64 65.05 38.84 67.13C40.04 69.21 40.64 71.72 40.64 74.65C40.64 78.17 39.68 81.09 37.76 83.41C35.84 85.73 33.31 87.46 30.16 88.61C27.01 89.76 23.57 90.33 19.84 90.33C16.37 90.33 13.61 90.01 11.56 89.37C9.51 88.73 7.76 88.06 6.32 87.37C5.15 86.62 4.24 86.25 3.6 86.25C3.07 86.25 2.68 86.54 2.44 87.13C2.2 87.72 2 88.6 1.84 89.77H0C0.11 88.44 0.17 86.88 0.2 85.09C0.23 83.3 0.25 81 0.28 78.17C0.31 75.34 0.32 71.74 0.32 67.37H2.16C2.37 71 2.97 74.38 3.96 77.53C4.95 80.68 6.47 83.22 8.52 85.17C10.57 87.12 13.31 88.09 16.72 88.09C18.64 88.09 20.32 87.77 21.76 87.13C23.2 86.49 24.35 85.54 25.2 84.29C26.05 83.04 26.48 81.5 26.48 79.69C26.48 77.45 25.97 75.5 24.96 73.85C23.95 72.2 22.56 70.64 20.8 69.17C19.04 67.7 16.99 66.22 14.64 64.73C12.13 63.08 9.79 61.4 7.6 59.69C5.41 57.98 3.67 56.08 2.36 53.97C1.05 51.86 0.4 49.32 0.4 46.33C0.4 42.92 1.28 40.12 3.04 37.93C4.8 35.74 7.13 34.13 10.04 33.09C12.95 32.05 16.03 31.53 19.28 31.53Z" fill="black"/>
<path d="M32.74 0L52.1 50C52.9 51.87 53.74 53.17 54.62 53.92C55.5 54.67 56.29 55.07 56.98 55.12V56.72C55.27 56.61 53.23 56.55 50.86 56.52C48.49 56.49 46.07 56.48 43.62 56.48C41.17 56.48 38.63 56.49 36.34 56.52C34.05 56.55 32.21 56.61 30.82 56.72V55.12C33.54 55.01 35.27 54.55 36.02 53.72C36.77 52.89 36.61 51.12 35.54 48.4L22.26 12.08L23.86 9.68L12.18 39.84C10.95 43.04 10.21 45.63 9.94002 47.6C9.67002 49.57 9.81002 51.09 10.34 52.16C10.87 53.23 11.71 53.97 12.86 54.4C14.01 54.83 15.38 55.07 16.98 55.12V56.72C15.11 56.61 13.39 56.55 11.82 56.52C10.25 56.49 8.55002 56.48 6.74002 56.48C5.67002 56.48 6.61002 55.76 5.52002 55.79C4.43002 55.82 5.32002 55.68 4.52002 55.79L3.52002 53.79C4.69002 53.58 3.02002 54.16 4.22002 52.88C5.42002 51.6 6.61002 49.39 7.78002 46.24L25.78 0C26.85 0.11 28.01 0.16 29.26 0.16C30.51 0.16 31.67 0.11 32.74 0Z" fill="black"/>
</svg>
