<svg width="43" height="68" viewBox="0 0 43 68" fill="none" xmlns="http://www.w3.org/2000/svg">
<path d="M14.4435 23.6204C16.9231 23.6204 18.8409 23.8677 20.1969 24.3696C21.5528 24.8715 22.714 25.3959 23.6729 25.9578C24.1523 26.235 24.5419 26.4447 24.8416 26.5871C25.1412 26.7294 25.4334 26.7968 25.7106 26.7968C26.1076 26.7968 26.3998 26.5796 26.5796 26.1376C26.7594 25.6956 26.9092 25.0363 27.029 24.1598H28.4075C28.37 24.9614 28.3176 25.8978 28.2576 26.9766C28.1977 28.0554 28.1603 29.4862 28.1378 31.2617C28.1153 33.0372 28.1078 35.3895 28.1078 38.3036L27.3587 37.2923C27.2013 35.1348 26.6994 36.2959 25.8604 34.2957C25.0213 32.2955 23.2459 28.415 21.7851 27.0965C20.3242 25.778 18.5413 25.1187 16.4212 25.1187C14.5858 25.1187 13.065 25.6281 11.8664 26.647C10.6678 27.6658 10.0685 29.1117 10.0685 30.992C10.0685 32.5128 10.4505 33.8163 11.2072 34.9175C11.9638 36.0187 13.1175 37.1275 14.6532 38.2437C16.189 39.3599 18.1367 40.7383 20.4965 42.379C22.3769 43.615 24.055 44.8586 25.5308 46.0947C27.0066 47.3308 28.1977 48.7317 29.0967 50.2899C29.9956 51.8481 30.4451 53.7285 30.4451 55.9235C30.4451 58.5604 29.726 60.7479 28.2876 62.4859C26.8493 64.2239 24.9539 65.52 22.5941 66.3815C20.2343 67.243 17.6573 67.67 14.863 67.67C12.2635 67.67 10.1958 67.4303 8.66008 66.9508C7.12434 66.4714 5.81334 65.9694 4.73458 65.4525C3.85808 64.8907 3.17636 64.6135 2.69691 64.6135C2.29987 64.6135 2.0077 64.8307 1.82791 65.2727C1.64811 65.7147 1.49828 66.374 1.37842 67.2505H0C0.0824056 66.2541 0.127354 65.0855 0.149828 63.7445C0.172303 62.4035 0.187286 60.6805 0.20976 58.5604C0.232234 56.4404 0.239725 53.7435 0.239725 50.4697H1.61815C1.77547 53.1891 2.22495 55.7212 2.9666 58.081C3.70825 60.4408 4.84695 62.3436 6.38269 63.8044C7.91843 65.2652 9.97108 65.9919 12.5257 65.9919C13.964 65.9919 15.2226 65.7522 16.3013 65.2727C17.3801 64.7933 18.2416 64.0816 18.8784 63.1452C19.5152 62.2088 19.8373 61.0551 19.8373 59.6991C19.8373 58.0211 19.4552 56.5602 18.6986 55.3241C17.942 54.0881 16.9006 52.9194 15.5822 51.8182C14.2637 50.7169 12.7279 49.6082 10.9674 48.492C9.08709 47.2559 7.3341 45.9973 5.69348 44.7163C4.05286 43.4353 2.74935 42.0119 1.76798 40.4312C0.786599 38.8505 0.299657 36.9477 0.299657 34.7077C0.299657 32.1532 0.958902 30.0556 2.27739 28.415C3.59588 26.7743 5.34138 25.5682 7.52139 24.7891C9.70139 24.01 12.0087 23.6204 14.4435 23.6204Z" fill="black"/>
<path d="M24.5271 0L39.0305 37.4571C39.6298 38.858 40.2591 39.8319 40.9184 40.3937C41.5776 40.9556 42.1694 41.2553 42.6863 41.2927V42.4913C41.4053 42.4089 39.8771 42.364 38.1016 42.3415C36.3261 42.319 34.5132 42.3115 32.6778 42.3115C30.8424 42.3115 28.9396 42.319 27.224 42.3415C25.5085 42.364 24.1301 42.4089 23.0888 42.4913V41.2927C25.1264 41.2103 26.4225 40.8657 26.9843 40.2439C27.5462 39.6221 27.4263 38.2961 26.6247 36.2585L16.6761 9.04964L17.8748 7.2517L9.12478 29.8458C8.20333 32.2431 7.64897 34.1833 7.4467 35.6592C7.24443 37.135 7.34931 38.2737 7.74636 39.0752C8.1434 39.8768 8.77268 40.4312 9.63419 40.7533C10.4957 41.0755 11.522 41.2553 12.7207 41.2927V42.4913C11.3198 42.4089 10.0312 42.364 8.85508 42.3415C7.67893 42.319 6.40539 42.3115 5.04944 42.3115C4.24786 42.3115 4.95206 41.7722 4.13549 41.7946C3.31893 41.8171 3.98566 41.7122 3.38635 41.7946L2.63721 40.2964C3.5137 40.139 2.26264 40.5735 3.16161 39.6146C4.06058 38.6557 4.95206 37.0001 5.82855 34.6403L19.3131 0C20.1147 0.0824056 20.9837 0.119863 21.9201 0.119863C22.8565 0.119863 23.7256 0.0824056 24.5271 0Z" fill="black"/>
</svg>
