<svg width="24" height="24" viewBox="0 0 24 24" fill="none" xmlns="http://www.w3.org/2000/svg">
<g clip-path="url(#clip0_226_15)">
<path d="M4.4608 4.20673C5.2033 4.81198 5.48455 4.76923 6.8863 4.67548L20.1013 3.88273C20.3826 3.88273 20.1486 3.60148 20.0541 3.55423L17.8588 1.96798C17.4411 1.63948 16.8786 1.26898 15.8038 1.35823L3.01105 2.29573C2.5423 2.33848 2.44855 2.57323 2.63605 2.76073L4.4608 4.20673ZM5.25355 7.28923V21.1912C5.25355 21.9375 5.6248 22.2187 6.4648 22.1715L20.9886 21.3315C21.8286 21.2842 21.9261 20.7727 21.9261 20.1637V6.35548C21.9261 5.74573 21.6913 5.42173 21.1761 5.46898L6.00055 6.35548C5.43805 6.40273 5.2543 6.67948 5.2543 7.28548L5.25355 7.28923ZM19.5898 8.03098C19.6836 8.45323 19.5898 8.87098 19.1676 8.92198L18.4686 9.06298V19.3245C17.8588 19.653 17.3008 19.8405 16.8358 19.8405C16.0858 19.8405 15.8983 19.6057 15.3396 18.9067L10.7616 11.7195V18.6727L12.2106 19.0012C12.2106 19.0012 12.2106 19.8412 11.0428 19.8412L7.82005 20.0287C7.7263 19.8412 7.82005 19.3725 8.14855 19.2825L8.98855 19.0477V9.85648L7.8208 9.76273C7.72705 9.34048 7.9618 8.73523 8.61355 8.68873L12.0703 8.45398L16.8358 15.735V9.29323L15.6208 9.15223C15.5271 8.64073 15.8983 8.26573 16.3671 8.22223L19.5898 8.03098ZM1.93705 1.03498L15.2458 0.0547324C16.8786 -0.0862676 17.3008 0.00748244 18.3276 0.753732L22.5778 3.74173C23.2768 4.25323 23.5116 4.39423 23.5116 4.95298V21.3322C23.5116 22.3597 23.1366 22.965 21.8316 23.0587L6.3703 23.9925C5.3938 24.0397 4.92505 23.8987 4.40905 23.2462L1.28005 19.1835C0.721305 18.4372 0.487305 17.8785 0.487305 17.2267V2.66848C0.487305 1.82848 0.862305 1.12948 1.9363 1.03573L1.93705 1.03498Z" fill="black"/>
</g>
<defs>
<clipPath id="clip0_226_15">
<rect width="24" height="24" fill="white"/>
</clipPath>
</defs>
</svg>
