<svg width="14" height="18" viewBox="0 0 14 18" fill="none" xmlns="http://www.w3.org/2000/svg">
<path fill-rule="evenodd" clip-rule="evenodd" d="M7 0C7.42955 0 7.77778 0.366316 7.77778 0.818182V15.2066L12.6722 10.0578C12.976 9.73829 13.4685 9.73829 13.7723 10.0578C14.0759 10.3773 14.0759 10.8954 13.7723 11.2149L7.54997 17.7604C7.40412 17.9138 7.20628 18 7 18C6.79372 18 6.59588 17.9138 6.45004 17.7604L0.227815 11.2149C-0.0759383 10.8954 -0.0759383 10.3773 0.227815 10.0578C0.531553 9.73829 1.02401 9.73829 1.32775 10.0578L6.22222 15.2066V0.818182C6.22222 0.366316 6.57045 0 7 0Z" fill="black"/>
</svg>
